<svg id="Layer_1" data-name="Layer 1" xmlns="http://www.w3.org/2000/svg" viewBox="0 0 409.68 119.66"><defs><style>.cls-1{fill:#fefefe;fill-rule:evenodd;}</style></defs><g id="_693141776" data-name=" 693141776"><path class="cls-1" d="M64,44.89H62.82V47.3h-1.2v2.42H60.11v1.21H58.9v1.51H57.69v1.2H55.28v1.21H52.56v1.21H40.18V10.78h7.55V12h4.83V13.2h2.72v1.51h2.41v1.2H58.9v1.21h1.21v1.21h1.51v2.41h1.2v2.72H64v3.62h1.21V41H64v3.92ZM4.87,10.78h6.34V12h2.41V13.2h1.21v3.92h1.51V90.17H14.83v3.62H12.42V95H7.28v1.2H4.87v5.14H6.08v1.2h49.2v-1.2h1.2V96.2h-1.2V95H46.52V93.79H42.6V92.58H41.39V90.17H40.18V63.6H62.82V62.4h4.83V61.19h2.72V60H74V58.47h2.72v-1.2h2.41V56.06h1.21V54.85h1.21V53.64h1.21v-1.2h1.5V49.72h1.21V48.51h1.21V46.1h1.21V41h1.2V27.08h-1.2V22.25H86.67V20.74H85.46V18.33H84.25V17.12h-1.5V14.71H80.33V13.2H79.12V12h-1.2V10.78H75.2V9.57H74V8.37H70.37V7.16H66.45V5.65H61.62V4.44H4.87v6.34Z"/><polygon class="cls-1" points="84.25 5.65 85.46 5.65 85.46 8.37 86.67 8.37 86.67 11.99 87.88 11.99 87.88 14.71 89.08 14.71 89.08 18.33 90.29 18.33 90.29 20.74 91.8 20.74 91.8 23.46 93.01 23.46 93.01 27.08 94.22 27.08 94.22 31 95.42 31 95.42 32.21 96.63 32.21 96.63 35.83 97.84 35.83 97.84 39.76 99.35 39.76 99.35 42.17 100.55 42.17 100.55 46.1 101.76 46.1 101.76 48.51 102.97 48.51 102.97 52.44 104.18 52.44 104.18 56.06 105.38 56.06 105.38 57.27 106.89 57.27 106.89 61.19 108.1 61.19 108.1 64.81 109.31 64.81 109.31 67.53 110.52 67.53 110.52 71.15 111.72 71.15 111.72 73.56 112.93 73.56 112.93 76.28 114.44 76.28 114.44 79.9 115.65 79.9 115.65 82.62 116.85 82.62 116.85 86.24 118.06 86.24 118.06 93.79 116.85 93.79 116.85 95 114.44 95 114.44 96.2 106.89 96.2 106.89 102.54 153.38 102.54 153.38 96.2 149.45 96.2 149.45 95 147.04 95 147.04 93.79 145.83 93.79 145.83 91.37 144.62 91.37 144.62 88.66 143.11 88.66 143.11 85.03 141.91 85.03 141.91 82.62 140.7 82.62 140.7 79.9 139.49 79.9 139.49 76.28 138.28 76.28 138.28 73.56 137.08 73.56 137.08 69.94 135.57 69.94 135.57 66.02 134.36 66.02 134.36 63.6 133.15 63.6 133.15 61.19 131.95 61.19 131.95 57.27 130.74 57.27 130.74 54.85 129.53 54.85 129.53 50.93 128.02 50.93 128.02 47.3 126.81 47.3 126.81 44.89 125.61 44.89 125.61 40.97 124.4 40.97 124.4 38.55 123.19 38.55 123.19 35.83 121.98 35.83 121.98 32.21 120.48 32.21 120.48 29.8 119.27 29.8 119.27 27.08 118.06 27.08 118.06 23.46 116.85 23.46 116.85 19.54 115.65 19.54 115.65 15.91 114.44 15.91 114.44 13.2 112.93 13.2 112.93 10.78 111.72 10.78 111.72 7.16 110.52 7.16 110.52 4.44 84.25 4.44 84.25 5.65"/><polygon class="cls-1" points="329.35 72.36 325.73 72.36 325.73 73.56 323.01 73.56 323.01 75.07 324.22 75.07 324.22 76.28 326.94 76.28 326.94 98.92 325.73 98.92 325.73 100.13 323.01 100.13 323.01 102.54 338.11 102.54 338.11 100.13 334.49 100.13 334.49 77.49 335.69 77.49 335.69 76.28 339.31 76.28 339.31 75.07 342.03 75.07 342.03 76.28 344.45 76.28 344.45 100.13 340.82 100.13 340.82 102.54 355.92 102.54 355.92 100.13 353.2 100.13 353.2 98.92 351.99 98.92 351.99 77.49 354.41 77.49 354.41 76.28 357.12 76.28 357.12 75.07 360.75 75.07 360.75 76.28 361.95 76.28 361.95 78.7 363.46 78.7 363.46 98.92 361.95 98.92 361.95 100.13 359.54 100.13 359.54 102.54 373.42 102.54 373.42 100.13 371.01 100.13 371.01 98.92 369.5 98.92 369.5 75.07 368.29 75.07 368.29 72.36 367.08 72.36 367.08 71.15 357.12 71.15 357.12 72.36 354.41 72.36 354.41 73.56 353.2 73.56 353.2 75.07 350.78 75.07 350.78 72.36 349.58 72.36 349.58 71.15 339.31 71.15 339.31 72.36 336.9 72.36 336.9 73.56 335.69 73.56 335.69 75.07 334.49 75.07 334.49 71.15 329.35 71.15 329.35 72.36"/><path class="cls-1" d="M269,79.9h1.21V77.49h1.21V75.07h2.72V73.56h6.33v1.51h1.21v2.42h1.21V96.2h-1.21v1.51h-7.54V96.2H271.4V93.79h-1.21V91.37H269Zm17.51-22.63h-3.62v1.2h-3.93V60h1.51v1.21h1.21V62.4h1.21v10h-1.21V71.15H271.4v1.21H269v1.2h-2.41v2.72h-1.21v1.21h-1.51V79.9h-1.2V85h-1.21v6.33h1.21V96.2h1.2v2.72h1.51v1.21h1.21v1.2H269v1.21h10v-1.21h1.51v-1.2h1.21V98.92h1.21v3.62h6.34v-1.2H294V98.92h-2.42V97.71h-1.2V56.06h-3.93v1.21Z"/><path class="cls-1" d="M187.18,24.67h-2.41v1.2h-3.92v1.21h-3.63V7.16h5.13V8.37H186v1.2h1.2V12h1.21V22.25h-1.21Zm-23.84-19h1.21V7.16h2.71V8.37h1.21v1.2h1.21V41h-1.21v1.2h-1.21v1.21h-2.71V46.1h19V43.38h-3.92V42.17h-2.42V29.8h10V28.29h2.72V27.08h2.42V25.87h1.2v-1.2h1.21V22.25h1.21V19.53h1.51V14.71h-1.51V10.78h-1.21V9.57h-1.21V8.37h-1.2V7.16H189.9V5.65h-2.72V4.44H163.34V5.65Z"/><path class="cls-1" d="M176,83.83h1.2V79.9h1.21V77.49h1.21V73.56h1.21V69.94h2.71v3.62h1.21v2.72H186V78.7h1.2v3.92h1.21V85H176V83.83Zm3.62-15.09h-1.21v2.41h-1.21v3.92H176V78.7h-1.21v2.41H173.3V85h-1.21v2.41h-1.21v3.92h-1.2V95h-1.21v2.71h-1.21v1.21h-1.51v1.21h-1.2v2.41H176v-2.41H173.3V98.92h-2.42V96.2h1.21V93.79h1.21V90.17h1.51V88.66h16.3v2.71h1.21V95h1.2v3.92h-1.2v1.21h-3.93v2.41H205v-2.41h-1.51V98.92h-1.2V96.2h-1.21V93.79h-1.21V91.37h-1.21V87.45h-1.2V85h-1.51V82.62h-1.21V78.7h-1.21V75.07h-1.2V72.36h-1.21V68.74H189.9V66h-1.51V62.4h-1.21V60h-7.54v8.76Z"/><polygon class="cls-1" points="255.1 15.91 251.48 15.91 251.48 17.12 248.76 17.12 248.76 19.54 251.48 19.54 251.48 20.74 252.68 20.74 252.68 42.17 251.48 42.17 251.48 43.38 248.76 43.38 248.76 46.1 262.64 46.1 262.64 43.38 260.23 43.38 260.23 20.74 261.44 20.74 261.44 19.54 263.85 19.54 263.85 18.33 267.78 18.33 267.78 19.54 270.19 19.54 270.19 24.67 271.4 24.67 271.4 39.76 270.19 39.76 270.19 43.38 267.78 43.38 267.78 46.1 281.66 46.1 281.66 43.38 278.94 43.38 278.94 22.25 277.74 22.25 277.74 18.33 276.53 18.33 276.53 17.12 275.32 17.12 275.32 15.91 274.12 15.91 274.12 14.71 265.36 14.71 265.36 15.91 262.64 15.91 262.64 17.12 261.44 17.12 261.44 18.33 260.23 18.33 260.23 14.71 255.1 14.71 255.1 15.91"/><polygon class="cls-1" points="315.47 15.91 310.64 15.91 310.64 18.33 313.05 18.33 313.05 19.54 314.26 19.54 314.26 42.17 315.47 42.17 315.47 43.38 316.68 43.38 316.68 44.89 318.19 44.89 318.19 46.1 326.94 46.1 326.94 44.89 329.35 44.89 329.35 43.38 330.56 43.38 330.56 42.17 331.77 42.17 331.77 46.1 339.31 46.1 339.31 44.89 343.24 44.89 343.24 42.17 339.31 42.17 339.31 14.71 333.28 14.71 333.28 15.91 329.35 15.91 329.35 17.12 328.15 17.12 328.15 18.33 331.77 18.33 331.77 39.76 330.56 39.76 330.56 40.97 328.15 40.97 328.15 42.17 324.22 42.17 324.22 40.97 323.01 40.97 323.01 39.76 321.81 39.76 321.81 14.71 315.47 14.71 315.47 15.91"/><path class="cls-1" d="M247.55,97.71H240V90.17h1.2V88.66h2.72V87.45h2.42V86.24h2.41v10h-1.21v1.51Zm-3.62-26.56H238.8v1.21h-1.21v1.2h-2.41v3.93h-1.51V78.7h1.51v2.41h6V73.56h6.34v1.51h1.21v8.76h-3.62V85h-2.42v1.2H240v1.21h-3.63v1.21h-1.2v1.51h-1.51v2.41h-1.21v6.34h1.21v1.21h1.51v1.2h1.2v1.21h8.76v-1.21h2.41v-1.2h1.21V98.92h1.51v2.41h1.21v1.21H259v-1.21h1.21v-1.2h1.21V98.92h-3.62V97.71h-1.51V76.28H255.1V73.56h-1.21v-1.2h-1.21V71.15h-6.33V69.94h-2.42Z"/><polygon class="cls-1" points="373.42 73.56 374.63 73.56 374.63 75.07 375.84 75.07 375.84 76.28 377.05 76.28 377.05 78.7 378.55 78.7 378.55 82.62 379.76 82.62 379.76 85.03 380.97 85.03 380.97 88.66 382.18 88.66 382.18 91.37 383.38 91.37 383.38 93.79 384.59 93.79 384.59 97.71 386.1 97.71 386.1 100.13 387.31 100.13 387.31 102.54 388.51 102.54 388.51 103.75 387.31 103.75 387.31 106.47 386.1 106.47 386.1 107.67 384.59 107.67 384.59 108.88 383.38 108.88 383.38 110.09 378.55 110.09 378.55 108.88 377.05 108.88 377.05 114.01 378.55 114.01 378.55 115.22 384.59 115.22 384.59 114.01 386.1 114.01 386.1 112.81 387.31 112.81 387.31 111.3 388.51 111.3 388.51 107.67 389.72 107.67 389.72 103.75 390.93 103.75 390.93 101.33 392.14 101.33 392.14 98.92 393.65 98.92 393.65 95 394.85 95 394.85 91.37 396.06 91.37 396.06 87.45 397.27 87.45 397.27 85.03 398.48 85.03 398.48 82.62 399.68 82.62 399.68 78.7 401.19 78.7 401.19 76.28 402.4 76.28 402.4 73.56 404.81 73.56 404.81 71.15 394.85 71.15 394.85 73.56 397.27 73.56 397.27 75.07 398.48 75.07 398.48 77.49 397.27 77.49 397.27 79.9 396.06 79.9 396.06 83.83 394.85 83.83 394.85 87.45 393.65 87.45 393.65 90.17 392.14 90.17 392.14 93.79 390.93 93.79 390.93 92.58 389.72 92.58 389.72 88.66 388.51 88.66 388.51 85.03 387.31 85.03 387.31 82.62 386.1 82.62 386.1 78.7 384.59 78.7 384.59 76.28 383.38 76.28 383.38 75.07 384.59 75.07 384.59 73.56 388.51 73.56 388.51 71.15 373.42 71.15 373.42 73.56"/><path class="cls-1" d="M303.09,77.49h1.21V75.07h2.41V73.56h5.14v1.51h1.2v1.21h1.21v4.83H303.09Zm6-6.34H304.3v1.21h-1.21v1.2h-2.71v1.51h-1.21v1.21H298V78.7h-1.21v3.92h-1.2v10h1.2V95H298v2.71h1.21v1.21h1.21v1.21h1.2v1.2h2.72v1.21h11.17v-1.21h1.21v-1.2h1.51V98.92h1.2V97.71h1.21V95h1.21V92.58H320.6v1.21h-1.21V95h-1.2v1.2h-2.72v1.51h-7.55V96.2h-1.21V95h-1.2V93.79H304.3V92.58h-1.21V86.24h-1.51V85h19V83.83h1.21V81.11H320.6V76.28h-1.21V75.07h-1.2V73.56h-1.51v-1.2h-1.21V71.15h-4.83V69.94h-1.51v1.21Z"/><path class="cls-1" d="M227.63,23.46h1.21V19.53h1.21v-1.2h1.2V17.12h6.34v1.21h1.21v5.13H240v1.21H227.63V23.46Zm2.42-7.55h-2.42v1.21h-1.51v1.21h-1.21v1.2h-1.2v1.21H222.5v3.93h-1.21V38.55h1.21v1.21h1.21v2.41h1.2v1.21h1.21v1.51h2.72V46.1H240V44.89h2.71V43.38h1.21V42.17h1.21V41h1.21V35.83h-1.21v2.72h-2.42v1.21h-1.51V41h-7.54V39.76h-2.42V38.55h-1.2V35.83h-1.21V33.42h-1.21V28.29h18.72V20.74h-1.21V18.33h-1.21V17.12h-1.21V15.91H240v-1.2h-10v1.2Z"/><path class="cls-1" d="M290.42,22.25h1.2V19.53h1.21v-1.2H294V17.12h5.13v1.21h1.21v1.2h1.2v5.14H290.41V22.25Zm2.41-6.34h-2.41v1.21H288v2.41h-1.51v1.21h-1.21v2.72h-1.2V38.55h1.2V41h1.21v1.2H288v1.21h1.21v1.51h2.41V46.1h11.47V44.89h2.42V43.38h1.2V42.17h1.21V39.76h1.21V35.83h-1.21v1.51h-1.21v1.21h-1.2v1.21H304.3V41h-8.75V39.76H294V38.55h-1.21V37.34h-1.21V34.63h-1.2V28.29h18.71v-6h-1.21V19.53h-1.21V17.12h-1.2V15.91h-2.42v-1.2H292.83v1.2Z"/><polygon class="cls-1" points="220.09 71.15 214.95 71.15 214.95 72.36 212.54 72.36 212.54 73.56 211.03 73.56 211.03 75.07 209.82 75.07 209.82 76.28 208.62 76.28 208.62 77.49 207.41 77.49 207.41 79.9 206.2 79.9 206.2 85.03 204.99 85.03 204.99 90.17 206.2 90.17 206.2 95 207.41 95 207.41 97.71 208.62 97.71 208.62 98.92 209.82 98.92 209.82 100.13 211.03 100.13 211.03 101.33 213.75 101.33 213.75 102.54 223.71 102.54 223.71 101.33 226.12 101.33 226.12 100.13 227.63 100.13 227.63 98.92 228.84 98.92 228.84 97.71 230.05 97.71 230.05 93.79 227.63 93.79 227.63 95 226.12 95 226.12 96.2 224.91 96.2 224.91 97.71 218.58 97.71 218.58 96.2 216.16 96.2 216.16 95 214.95 95 214.95 93.79 213.75 93.79 213.75 91.37 212.54 91.37 212.54 78.7 213.75 78.7 213.75 76.28 214.95 76.28 214.95 75.07 216.16 75.07 216.16 73.56 222.5 73.56 222.5 76.28 223.71 76.28 223.71 81.11 228.84 81.11 228.84 79.9 230.05 79.9 230.05 75.07 228.84 75.07 228.84 73.56 227.63 73.56 227.63 72.36 226.12 72.36 226.12 71.15 221.29 71.15 221.29 69.94 220.09 69.94 220.09 71.15"/><polygon class="cls-1" points="204.99 15.91 201.07 15.91 201.07 17.12 198.65 17.12 198.65 18.33 199.86 18.33 199.86 19.54 202.28 19.54 202.28 43.38 198.65 43.38 198.65 46.1 214.95 46.1 214.95 43.38 211.03 43.38 211.03 42.17 209.82 42.17 209.82 23.46 211.03 23.46 211.03 22.25 214.95 22.25 214.95 20.74 220.09 20.74 220.09 14.71 213.75 14.71 213.75 15.91 212.54 15.91 212.54 17.12 211.03 17.12 211.03 20.74 209.82 20.74 209.82 14.71 204.99 14.71 204.99 15.91"/><polygon class="cls-1" points="351.99 15.91 348.37 15.91 348.37 17.12 344.45 17.12 344.45 18.33 345.65 18.33 345.65 19.54 348.37 19.54 348.37 43.38 344.45 43.38 344.45 46.1 360.75 46.1 360.75 43.38 357.12 43.38 357.12 42.17 355.92 42.17 355.92 24.67 357.12 24.67 357.12 23.46 358.33 23.46 358.33 22.25 360.75 22.25 360.75 20.74 365.88 20.74 365.88 14.71 360.75 14.71 360.75 15.91 358.33 15.91 358.33 18.33 357.12 18.33 357.12 20.74 355.92 20.74 355.92 14.71 351.99 14.71 351.99 15.91"/></g></svg>