<?xml version="1.0" encoding="UTF-8"?>
<!DOCTYPE svg PUBLIC "-//W3C//DTD SVG 1.1//EN" "http://www.w3.org/Graphics/SVG/1.1/DTD/svg11.dtd">
<!-- Creator: CorelDRAW 2019 (64-Bit) -->
<svg xmlns="http://www.w3.org/2000/svg" xml:space="preserve" width="148mm" height="210mm" version="1.1" style="shape-rendering:geometricPrecision; text-rendering:geometricPrecision; image-rendering:optimizeQuality; fill-rule:evenodd; clip-rule:evenodd"
viewBox="0 0 14800 21000"
 xmlns:xlink="http://www.w3.org/1999/xlink">
 <defs>
  <style type="text/css">
   <![CDATA[
    .fil0 {fill:#FEFEFE}
   ]]>
  </style>
   <clipPath id="id0">
    <rect x="29557.33" y="10532.96" width="40504.43" height="17366.96"/>
   </clipPath>
 </defs>
 <g id="Layer_x0020_1">
  <metadata id="CorelCorpID_0Corel-Layer"/>
  <g style="clip-path:url(#id0)">
   <image x="29557.33" y="10532.94" width="40504.45" height="17366.98" xlink:href="Untitled-1_Images\Untitled-1_ImgID1.png"/>
  </g>
  <g id="_693141776">
   <path class="fil0" d="M3067.28 10171.03l-42.6 0 0 85.2 -42.59 0 0 85.18 -53.24 0 0 42.6 -42.6 0 0 53.24 -42.59 0 0 42.59 -85.19 0 0 42.59 -95.84 0 0 42.6 -436.58 0 0 -1597.27 266.21 0 0 42.6 170.37 0 0 42.58 95.84 0 0 53.25 85.19 0 0 42.59 42.59 0 0 42.6 42.6 0 0 42.6 53.24 0 0 85.18 42.59 0 0 95.83 42.6 0 0 127.79 42.59 0 0 489.83 -42.59 0 0 138.42zm-2087.1 -1203.27l223.62 0 0 42.6 85.18 0 0 42.58 42.6 0 0 138.44 53.24 0 0 2576.92 -53.24 0 0 127.78 -85.18 0 0 42.6 -181.04 0 0 42.58 -85.18 0 0 181.04 42.6 0 0 42.58 1735.69 0 0 -42.58 42.6 0 0 -181.04 -42.6 0 0 -42.58 -308.8 0 0 -42.6 -138.44 0 0 -42.6 -42.58 0 0 -85.18 -42.6 0 0 -937.07 798.63 0 0 -42.58 170.38 0 0 -42.6 95.84 0 0 -42.59 127.78 0 0 -53.25 95.84 0 0 -42.58 85.18 0 0 -42.6 42.6 0 0 -42.6 42.58 0 0 -42.59 42.6 0 0 -42.59 53.24 0 0 -95.84 42.6 0 0 -42.6 42.6 0 0 -85.18 42.58 0 0 -181.02 42.6 0 0 -489.83 -42.6 0 0 -170.38 -42.58 0 0 -53.24 -42.6 0 0 -85.18 -42.6 0 0 -42.6 -53.24 0 0 -85.19 -85.18 0 0 -53.25 -42.6 0 0 -42.58 -42.6 0 0 -42.6 -95.83 0 0 -42.6 -42.59 0 0 -42.58 -127.78 0 0 -42.6 -138.44 0 0 -53.24 -170.37 0 0 -42.6 -2001.91 0 0 223.62z"/>
   <polygon class="fil0" points="3780.72,8786.74 3823.32,8786.74 3823.32,8882.58 3865.92,8882.58 3865.92,9010.36 3908.5,9010.36 3908.5,9106.19 3951.1,9106.19 3951.1,9233.98 3993.7,9233.98 3993.7,9319.16 4046.94,9319.16 4046.94,9414.99 4089.53,9414.99 4089.53,9542.78 4132.12,9542.78 4132.12,9681.21 4174.72,9681.21 4174.72,9723.8 4217.31,9723.8 4217.31,9851.58 4259.9,9851.58 4259.9,9990.01 4313.15,9990.01 4313.15,10075.2 4355.74,10075.2 4355.74,10213.63 4398.33,10213.63 4398.33,10298.81 4440.93,10298.81 4440.93,10437.25 4483.52,10437.25 4483.52,10565.03 4526.12,10565.03 4526.12,10607.63 4579.35,10607.63 4579.35,10746.05 4621.95,10746.05 4621.95,10873.83 4664.55,10873.83 4664.55,10969.67 4707.14,10969.67 4707.14,11097.45 4749.73,11097.45 4749.73,11182.63 4792.33,11182.63 4792.33,11278.47 4845.57,11278.47 4845.57,11406.25 4888.17,11406.25 4888.17,11502.08 4930.75,11502.08 4930.75,11629.87 4973.35,11629.87 4973.35,11896.08 4930.75,11896.08 4930.75,11938.68 4845.57,11938.68 4845.57,11981.26 4579.35,11981.26 4579.35,12204.88 6219.22,12204.88 6219.22,11981.26 6080.79,11981.26 6080.79,11938.68 5995.6,11938.68 5995.6,11896.08 5953,11896.08 5953,11810.9 5910.42,11810.9 5910.42,11715.06 5857.17,11715.06 5857.17,11587.28 5814.58,11587.28 5814.58,11502.08 5771.99,11502.08 5771.99,11406.25 5729.39,11406.25 5729.39,11278.47 5686.8,11278.47 5686.8,11182.63 5644.2,11182.63 5644.2,11054.85 5590.97,11054.85 5590.97,10916.43 5548.37,10916.43 5548.37,10831.23 5505.77,10831.23 5505.77,10746.05 5463.18,10746.05 5463.18,10607.63 5420.59,10607.63 5420.59,10522.43 5377.99,10522.43 5377.99,10384.01 5324.75,10384.01 5324.75,10256.23 5282.15,10256.23 5282.15,10171.03 5239.57,10171.03 5239.57,10032.61 5196.97,10032.61 5196.97,9947.41 5154.37,9947.41 5154.37,9851.58 5111.79,9851.58 5111.79,9723.8 5058.53,9723.8 5058.53,9638.61 5015.95,9638.61 5015.95,9542.78 4973.35,9542.78 4973.35,9414.99 4930.75,9414.99 4930.75,9276.56 4888.17,9276.56 4888.17,9148.78 4845.57,9148.78 4845.57,9052.94 4792.33,9052.94 4792.33,8967.76 4749.73,8967.76 4749.73,8839.98 4707.14,8839.98 4707.14,8744.14 3780.72,8744.14 "/>
   <polygon class="fil0" points="12427.26,11140.04 12299.48,11140.04 12299.48,11182.63 12203.64,11182.63 12203.64,11235.88 12246.24,11235.88 12246.24,11278.47 12342.08,11278.47 12342.08,12077.1 12299.48,12077.1 12299.48,12119.7 12203.64,12119.7 12203.64,12204.88 12736.08,12204.88 12736.08,12119.7 12608.29,12119.7 12608.29,11321.06 12650.88,11321.06 12650.88,11278.47 12778.66,11278.47 12778.66,11235.88 12874.5,11235.88 12874.5,11278.47 12959.69,11278.47 12959.69,12119.7 12831.91,12119.7 12831.91,12204.88 13364.33,12204.88 13364.33,12119.7 13268.49,12119.7 13268.49,12077.1 13225.9,12077.1 13225.9,11321.06 13311.09,11321.06 13311.09,11278.47 13406.93,11278.47 13406.93,11235.88 13534.71,11235.88 13534.71,11278.47 13577.3,11278.47 13577.3,11363.66 13630.55,11363.66 13630.55,12077.1 13577.3,12077.1 13577.3,12119.7 13492.11,12119.7 13492.11,12204.88 13981.95,12204.88 13981.95,12119.7 13896.75,12119.7 13896.75,12077.1 13843.51,12077.1 13843.51,11235.88 13800.91,11235.88 13800.91,11140.04 13758.33,11140.04 13758.33,11097.45 13406.93,11097.45 13406.93,11140.04 13311.09,11140.04 13311.09,11182.63 13268.49,11182.63 13268.49,11235.88 13183.31,11235.88 13183.31,11140.04 13140.71,11140.04 13140.71,11097.45 12778.66,11097.45 12778.66,11140.04 12693.48,11140.04 12693.48,11182.63 12650.88,11182.63 12650.88,11235.88 12608.29,11235.88 12608.29,11097.45 12427.26,11097.45 "/>
   <path class="fil0" d="M10297.58 11406.25l42.59 0 0 -85.19 42.59 0 0 -85.18 95.83 0 0 -53.25 223.62 0 0 53.25 42.6 0 0 85.18 42.6 0 0 660.2 -42.6 0 0 53.26 -266.22 0 0 -53.26 -95.83 0 0 -85.18 -42.59 0 0 -85.18 -42.59 0 0 -404.65zm617.61 -798.62l-127.78 0 0 42.58 -138.44 0 0 53.25 53.24 0 0 42.59 42.6 0 0 42.6 42.6 0 0 351.39 -42.6 0 0 -42.59 -362.05 0 0 42.59 -85.18 0 0 42.59 -85.19 0 0 95.84 -42.6 0 0 42.59 -53.23 0 0 85.19 -42.6 0 0 181.03 -42.6 0 0 223.62 42.6 0 0 170.36 42.6 0 0 95.84 53.23 0 0 42.6 42.6 0 0 42.6 85.19 0 0 42.58 351.39 0 0 -42.58 53.24 0 0 -42.6 42.6 0 0 -42.6 42.6 0 0 127.78 223.62 0 0 -42.58 170.36 0 0 -85.2 -85.18 0 0 -42.58 -42.6 0 0 -1469.49 -138.42 0 0 42.6z"/>
   <path class="fil0" d="M7411.85 9457.59l-85.19 0 0 42.59 -138.43 0 0 42.6 -127.78 0 0 -702.8 181.02 0 0 42.6 127.78 0 0 42.58 42.6 0 0 85.2 42.59 0 0 362.04 -42.59 0 0 85.19zm-841.23 -670.85l42.6 0 0 53.24 95.83 0 0 42.6 42.59 0 0 42.58 42.6 0 0 1107.45 -42.6 0 0 42.59 -42.59 0 0 42.59 -95.83 0 0 95.84 670.85 0 0 -95.84 -138.43 0 0 -42.59 -85.19 0 0 -436.59 351.4 0 0 -53.24 95.84 0 0 -42.59 85.18 0 0 -42.6 42.6 0 0 -42.59 42.58 0 0 -85.19 42.6 0 0 -95.84 53.24 0 0 -170.37 -53.24 0 0 -138.43 -42.6 0 0 -42.6 -42.58 0 0 -42.58 -42.6 0 0 -42.6 -85.18 0 0 -53.24 -95.84 0 0 -42.6 -841.23 0 0 42.6z"/>
   <path class="fil0" d="M7017.85 11544.68l42.6 0 0 -138.43 42.59 0 0 -85.19 42.6 0 0 -138.43 42.59 0 0 -127.78 95.84 0 0 127.78 42.59 0 0 95.84 42.59 0 0 85.19 42.6 0 0 138.42 42.59 0 0 85.2 -436.59 0 0 -42.6zm127.79 -532.42l-42.6 0 0 85.19 -42.59 0 0 138.43 -42.6 0 0 127.78 -42.59 0 0 85.19 -53.24 0 0 138.43 -42.6 0 0 85.18 -42.58 0 0 138.44 -42.6 0 0 127.78 -42.6 0 0 95.84 -42.59 0 0 42.58 -53.25 0 0 42.6 -42.58 0 0 85.18 404.63 0 0 -85.18 -95.83 0 0 -42.6 -85.18 0 0 -95.84 42.58 0 0 -85.18 42.6 0 0 -127.78 53.24 0 0 -53.24 575.01 0 0 95.84 42.6 0 0 127.78 42.6 0 0 138.42 -42.6 0 0 42.6 -138.43 0 0 85.18 585.67 0 0 -85.18 -53.24 0 0 -42.6 -42.6 0 0 -95.84 -42.6 0 0 -85.18 -42.58 0 0 -85.18 -42.6 0 0 -138.44 -42.6 0 0 -85.18 -53.24 0 0 -85.2 -42.6 0 0 -138.42 -42.58 0 0 -127.78 -42.6 0 0 -95.84 -42.6 0 0 -127.78 -42.58 0 0 -95.83 -53.25 0 0 -127.78 -42.59 0 0 -85.19 -266.21 0 0 308.8z"/>
   <polygon class="fil0" points="9807.74,9148.78 9679.96,9148.78 9679.96,9191.38 9584.12,9191.38 9584.12,9276.56 9679.96,9276.56 9679.96,9319.16 9722.56,9319.16 9722.56,10075.2 9679.96,10075.2 9679.96,10117.79 9584.12,10117.79 9584.12,10213.63 10073.96,10213.63 10073.96,10117.79 9988.77,10117.79 9988.77,9319.16 10031.36,9319.16 10031.36,9276.56 10116.56,9276.56 10116.56,9233.98 10254.98,9233.98 10254.98,9276.56 10340.17,9276.56 10340.17,9457.59 10382.76,9457.59 10382.76,9990.01 10340.17,9990.01 10340.17,10117.79 10254.98,10117.79 10254.98,10213.63 10744.81,10213.63 10744.81,10117.79 10648.97,10117.79 10648.97,9372.4 10606.38,9372.4 10606.38,9233.98 10563.79,9233.98 10563.79,9191.38 10521.19,9191.38 10521.19,9148.78 10478.59,9148.78 10478.59,9106.19 10169.79,9106.19 10169.79,9148.78 10073.96,9148.78 10073.96,9191.38 10031.36,9191.38 10031.36,9233.98 9988.77,9233.98 9988.77,9106.19 9807.74,9106.19 "/>
   <polygon class="fil0" points="11937.44,9148.78 11767.06,9148.78 11767.06,9233.98 11852.25,9233.98 11852.25,9276.56 11894.84,9276.56 11894.84,10075.2 11937.44,10075.2 11937.44,10117.79 11980.03,10117.79 11980.03,10171.03 12033.28,10171.03 12033.28,10213.63 12342.08,10213.63 12342.08,10171.03 12427.26,10171.03 12427.26,10117.79 12469.86,10117.79 12469.86,10075.2 12512.46,10075.2 12512.46,10213.63 12778.66,10213.63 12778.66,10171.03 12917.1,10171.03 12917.1,10075.2 12778.66,10075.2 12778.66,9106.19 12565.7,9106.19 12565.7,9148.78 12427.26,9148.78 12427.26,9191.38 12384.68,9191.38 12384.68,9233.98 12512.46,9233.98 12512.46,9990.01 12469.86,9990.01 12469.86,10032.61 12384.68,10032.61 12384.68,10075.2 12246.24,10075.2 12246.24,10032.61 12203.64,10032.61 12203.64,9990.01 12161.06,9990.01 12161.06,9106.19 11937.44,9106.19 "/>
   <path class="fil0" d="M9541.54 12034.52l-266.22 0 0 -266.22 42.6 0 0 -53.24 95.84 0 0 -42.6 85.18 0 0 -42.59 85.18 0 0 351.39 -42.58 0 0 53.26zm-127.78 -937.07l-181.03 0 0 42.59 -42.59 0 0 42.59 -85.2 0 0 138.43 -53.23 0 0 42.6 53.23 0 0 85.19 212.98 0 0 -266.22 223.62 0 0 53.25 42.58 0 0 308.8 -127.78 0 0 42.6 -85.18 0 0 42.59 -95.84 0 0 42.59 -127.78 0 0 42.6 -42.6 0 0 53.24 -53.23 0 0 85.18 -42.6 0 0 223.62 42.6 0 0 42.6 53.23 0 0 42.6 42.6 0 0 42.58 308.8 0 0 -42.58 85.2 0 0 -42.6 42.58 0 0 -42.6 53.26 0 0 85.2 42.58 0 0 42.58 266.22 0 0 -42.58 42.59 0 0 -42.6 42.59 0 0 -42.6 -127.78 0 0 -42.58 -53.24 0 0 -756.05 -42.6 0 0 -95.84 -42.58 0 0 -42.59 -42.6 0 0 -42.59 -223.62 0 0 -42.6 -85.18 0 0 42.6z"/>
   <polygon class="fil0" points="13981.95,11182.63 14024.53,11182.63 14024.53,11235.88 14067.13,11235.88 14067.13,11278.47 14109.73,11278.47 14109.73,11363.66 14162.96,11363.66 14162.96,11502.08 14205.56,11502.08 14205.56,11587.28 14248.15,11587.28 14248.15,11715.06 14290.75,11715.06 14290.75,11810.9 14333.34,11810.9 14333.34,11896.08 14375.93,11896.08 14375.93,12034.52 14429.18,12034.52 14429.18,12119.7 14471.77,12119.7 14471.77,12204.88 14514.36,12204.88 14514.36,12247.48 14471.77,12247.48 14471.77,12343.32 14429.18,12343.32 14429.18,12385.91 14375.93,12385.91 14375.93,12428.5 14333.34,12428.5 14333.34,12471.1 14162.96,12471.1 14162.96,12428.5 14109.73,12428.5 14109.73,12609.53 14162.96,12609.53 14162.96,12652.12 14375.93,12652.12 14375.93,12609.53 14429.18,12609.53 14429.18,12566.93 14471.77,12566.93 14471.77,12513.7 14514.36,12513.7 14514.36,12385.91 14556.96,12385.91 14556.96,12247.48 14599.55,12247.48 14599.55,12162.3 14642.15,12162.3 14642.15,12077.1 14695.38,12077.1 14695.38,11938.68 14737.98,11938.68 14737.98,11810.9 14780.58,11810.9 14780.58,11672.46 14823.17,11672.46 14823.17,11587.28 14865.76,11587.28 14865.76,11502.08 14908.36,11502.08 14908.36,11363.66 14961.6,11363.66 14961.6,11278.47 15004.2,11278.47 15004.2,11182.63 15089.38,11182.63 15089.38,11097.45 14737.98,11097.45 14737.98,11182.63 14823.17,11182.63 14823.17,11235.88 14865.76,11235.88 14865.76,11321.06 14823.17,11321.06 14823.17,11406.25 14780.58,11406.25 14780.58,11544.68 14737.98,11544.68 14737.98,11672.46 14695.38,11672.46 14695.38,11768.3 14642.15,11768.3 14642.15,11896.08 14599.55,11896.08 14599.55,11853.48 14556.96,11853.48 14556.96,11715.06 14514.36,11715.06 14514.36,11587.28 14471.77,11587.28 14471.77,11502.08 14429.18,11502.08 14429.18,11363.66 14375.93,11363.66 14375.93,11278.47 14333.34,11278.47 14333.34,11235.88 14375.93,11235.88 14375.93,11182.63 14514.36,11182.63 14514.36,11097.45 13981.95,11097.45 "/>
   <path class="fil0" d="M11500.85 11321.06l42.59 0 0 -85.18 85.19 0 0 -53.25 181.03 0 0 53.25 42.59 0 0 42.59 42.59 0 0 170.38 -393.99 0 0 -127.79zm212.97 -223.61l-170.38 0 0 42.59 -42.59 0 0 42.59 -95.84 0 0 53.25 -42.58 0 0 42.59 -42.6 0 0 85.19 -42.6 0 0 138.42 -42.59 0 0 351.4 42.59 0 0 85.2 42.6 0 0 95.84 42.6 0 0 42.58 42.58 0 0 42.6 42.6 0 0 42.6 95.83 0 0 42.58 394 0 0 -42.58 42.59 0 0 -42.6 53.25 0 0 -42.6 42.58 0 0 -42.58 42.6 0 0 -95.84 42.6 0 0 -85.2 -42.6 0 0 42.6 -42.6 0 0 42.6 -42.58 0 0 42.58 -95.84 0 0 53.26 -266.21 0 0 -53.26 -42.6 0 0 -42.58 -42.59 0 0 -42.6 -42.6 0 0 -42.6 -42.59 0 0 -223.61 -53.24 0 0 -42.59 670.85 0 0 -42.6 42.6 0 0 -95.83 -42.6 0 0 -170.38 -42.6 0 0 -42.59 -42.58 0 0 -53.25 -53.25 0 0 -42.59 -42.59 0 0 -42.59 -170.38 0 0 -42.6 -53.24 0 0 42.6z"/>
   <path class="fil0" d="M8838.74 9414.99l42.59 0 0 -138.43 42.59 0 0 -42.58 42.6 0 0 -42.6 223.62 0 0 42.6 42.59 0 0 181.01 42.59 0 0 42.6 -436.58 0 0 -42.6zm85.18 -266.21l-85.18 0 0 42.6 -53.25 0 0 42.6 -42.59 0 0 42.58 -42.59 0 0 42.6 -42.6 0 0 138.43 -42.59 0 0 489.82 42.59 0 0 42.6 42.6 0 0 85.19 42.59 0 0 42.59 42.59 0 0 53.24 95.84 0 0 42.6 393.99 0 0 -42.6 95.84 0 0 -53.24 42.6 0 0 -42.59 42.58 0 0 -42.59 42.6 0 0 -181.03 -42.6 0 0 95.83 -85.18 0 0 42.6 -53.24 0 0 42.6 -266.21 0 0 -42.6 -85.19 0 0 -42.6 -42.6 0 0 -95.83 -42.59 0 0 -85.19 -42.59 0 0 -181.02 660.2 0 0 -266.21 -42.6 0 0 -85.18 -42.58 0 0 -42.6 -42.6 0 0 -42.6 -95.84 0 0 -42.59 -351.4 0 0 42.59z"/>
   <path class="fil0" d="M11053.61 9372.4l42.6 0 0 -95.84 42.6 0 0 -42.58 42.58 0 0 -42.6 181.04 0 0 42.6 42.58 0 0 42.58 42.6 0 0 181.03 -394 0 0 -85.19zm85.2 -223.62l-85.2 0 0 42.6 -85.18 0 0 85.18 -53.24 0 0 42.6 -42.6 0 0 95.83 -42.6 0 0 532.42 42.6 0 0 85.2 42.6 0 0 42.59 53.24 0 0 42.59 42.6 0 0 53.24 85.18 0 0 42.6 404.64 0 0 -42.6 85.19 0 0 -53.24 42.59 0 0 -42.59 42.6 0 0 -85.19 42.59 0 0 -138.43 -42.59 0 0 53.25 -42.6 0 0 42.58 -42.59 0 0 42.6 -42.6 0 0 42.6 -308.8 0 0 -42.6 -53.25 0 0 -42.6 -42.58 0 0 -42.58 -42.6 0 0 -95.84 -42.6 0 0 -223.62 660.21 0 0 -212.97 -42.59 0 0 -95.84 -42.6 0 0 -85.18 -42.59 0 0 -42.6 -85.19 0 0 -42.59 -362.04 0 0 42.59z"/>
   <polygon class="fil0" points="8572.53,11097.45 8391.51,11097.45 8391.51,11140.04 8306.31,11140.04 8306.31,11182.63 8253.07,11182.63 8253.07,11235.88 8210.47,11235.88 8210.47,11278.47 8167.89,11278.47 8167.89,11321.06 8125.29,11321.06 8125.29,11406.25 8082.69,11406.25 8082.69,11587.28 8040.11,11587.28 8040.11,11768.3 8082.69,11768.3 8082.69,11938.68 8125.29,11938.68 8125.29,12034.52 8167.89,12034.52 8167.89,12077.1 8210.47,12077.1 8210.47,12119.7 8253.07,12119.7 8253.07,12162.3 8348.91,12162.3 8348.91,12204.88 8700.31,12204.88 8700.31,12162.3 8785.49,12162.3 8785.49,12119.7 8838.74,12119.7 8838.74,12077.1 8881.33,12077.1 8881.33,12034.52 8923.92,12034.52 8923.92,11896.08 8838.74,11896.08 8838.74,11938.68 8785.49,11938.68 8785.49,11981.26 8742.9,11981.26 8742.9,12034.52 8519.29,12034.52 8519.29,11981.26 8434.09,11981.26 8434.09,11938.68 8391.51,11938.68 8391.51,11896.08 8348.91,11896.08 8348.91,11810.9 8306.31,11810.9 8306.31,11363.66 8348.91,11363.66 8348.91,11278.47 8391.51,11278.47 8391.51,11235.88 8434.09,11235.88 8434.09,11182.63 8657.71,11182.63 8657.71,11278.47 8700.31,11278.47 8700.31,11448.85 8881.33,11448.85 8881.33,11406.25 8923.92,11406.25 8923.92,11235.88 8881.33,11235.88 8881.33,11182.63 8838.74,11182.63 8838.74,11140.04 8785.49,11140.04 8785.49,11097.45 8615.12,11097.45 8615.12,11054.85 8572.53,11054.85 "/>
   <polygon class="fil0" points="8040.11,9148.78 7901.67,9148.78 7901.67,9191.38 7816.49,9191.38 7816.49,9233.98 7859.09,9233.98 7859.09,9276.56 7944.27,9276.56 7944.27,10117.79 7816.49,10117.79 7816.49,10213.63 8391.51,10213.63 8391.51,10117.79 8253.07,10117.79 8253.07,10075.2 8210.47,10075.2 8210.47,9414.99 8253.07,9414.99 8253.07,9372.4 8391.51,9372.4 8391.51,9319.16 8572.53,9319.16 8572.53,9106.19 8348.91,9106.19 8348.91,9148.78 8306.31,9148.78 8306.31,9191.38 8253.07,9191.38 8253.07,9319.16 8210.47,9319.16 8210.47,9106.19 8040.11,9106.19 "/>
   <polygon class="fil0" points="13225.9,9148.78 13098.12,9148.78 13098.12,9191.38 12959.69,9191.38 12959.69,9233.98 13002.28,9233.98 13002.28,9276.56 13098.12,9276.56 13098.12,10117.79 12959.69,10117.79 12959.69,10213.63 13534.71,10213.63 13534.71,10117.79 13406.93,10117.79 13406.93,10075.2 13364.33,10075.2 13364.33,9457.59 13406.93,9457.59 13406.93,9414.99 13449.51,9414.99 13449.51,9372.4 13534.71,9372.4 13534.71,9319.16 13715.73,9319.16 13715.73,9106.19 13534.71,9106.19 13534.71,9148.78 13449.51,9148.78 13449.51,9233.98 13406.93,9233.98 13406.93,9319.16 13364.33,9319.16 13364.33,9106.19 13225.9,9106.19 "/>
  </g>
 </g>
</svg>
